<?xml version="1.0" encoding="UTF-8"?>
<svg version="1.1" xmlns="http://www.w3.org/2000/svg" width="32" height="32">
<path d="M0 0 C10.56 0 21.12 0 32 0 C32 10.56 32 21.12 32 32 C21.44 32 10.88 32 0 32 C0 21.44 0 10.88 0 0 Z " fill="#171513" transform="translate(0,0)"/>
<path d="M0 0 C0.70125 0.00515625 1.4025 0.0103125 2.125 0.015625 C2.82625 0.01046875 3.5275 0.0053125 4.25 0 C6.125 0.265625 6.125 0.265625 8.125 2.265625 C8.125 3.255625 8.125 4.245625 8.125 5.265625 C6.805 5.265625 5.485 5.265625 4.125 5.265625 C4.125 4.605625 4.125 3.945625 4.125 3.265625 C2.475 3.265625 0.825 3.265625 -0.875 3.265625 C0.74128121 6.49818743 3.89493715 6.93899204 7.125 8.265625 C8.125 9.265625 8.125 9.265625 8.3125 11.703125 C8.125 14.265625 8.125 14.265625 6.125 16.265625 C-1.10944976 16.83978768 -1.10944976 16.83978768 -3.875 14.765625 C-4.205 14.270625 -4.535 13.775625 -4.875 13.265625 C-4.545 12.275625 -4.215 11.285625 -3.875 10.265625 C-2.885 10.265625 -1.895 10.265625 -0.875 10.265625 C-0.545 10.925625 -0.215 11.585625 0.125 12.265625 C1.445 11.935625 2.765 11.605625 4.125 11.265625 C2.990625 10.79125 1.85625 10.316875 0.6875 9.828125 C-2.875 8.265625 -2.875 8.265625 -3.875 7.265625 C-4.0625 4.828125 -4.0625 4.828125 -3.875 2.265625 C-1.875 0.265625 -1.875 0.265625 0 0 Z " fill="#E5E5E5" transform="translate(11.875,7.734375)"/>
<path d="M0 0 C2.375 -0.125 2.375 -0.125 5 0 C7 2 7 2 7 5 C5.68 5 4.36 5 3 5 C3 4.34 3 3.68 3 3 C1.68 3 0.36 3 -1 3 C-0.67 2.01 -0.34 1.02 0 0 Z " fill="#DFDFDF" transform="translate(13,8)"/>
<path d="M0 0 C1.65 0 3.3 0 5 0 C5 0.66 5 1.32 5 2 C6.32 2.33 7.64 2.66 9 3 C6.08517222 3.80967438 4.53886783 4.21845993 1.6875 3.0625 C1.130625 2.711875 0.57375 2.36125 0 2 C0 1.34 0 0.68 0 0 Z " fill="#474644" transform="translate(11,11)"/>
<path d="M0 0 C2.97 0.495 2.97 0.495 6 1 C6 1.99 6 2.98 6 4 C4.35 3.67 2.7 3.34 1 3 C0.67 2.01 0.34 1.02 0 0 Z " fill="#2E2C2B" transform="translate(10,17)"/>
<path d="M0 0 C1.32 0 2.64 0 4 0 C4 1.32 4 2.64 4 4 C2.35 4 0.7 4 -1 4 C-0.67 2.68 -0.34 1.36 0 0 Z " fill="#D6492F" transform="translate(21,9)"/>
</svg>
